<?xml version="1.0" encoding="utf-8"?>
<!-- Generator: Adobe Illustrator 18.1.1, SVG Export Plug-In . SVG Version: 6.00 Build 0)  -->
<svg version="1.1" id="Layer_1" xmlns="http://www.w3.org/2000/svg" xmlns:xlink="http://www.w3.org/1999/xlink" x="0px" y="0px"
	 width="362px" height="73.5px" viewBox="-124 360.5 362 73.5" enable-background="new -124 360.5 362 73.5" xml:space="preserve">
<path fill="#FFFFFF" d="M-122.3,383.9c1.1-3.2,2.8-6,4.9-8.3c2.2-2.4,4.8-4.2,7.9-5.6c3.1-1.3,6.6-2,10.5-2c3.3,0,6.3,0.4,8.9,1.3
	c2.6,0.9,4.9,2.1,6.9,3.6c2,1.6,3.6,3.4,4.8,5.7c1.2,2.2,2.1,4.7,2.5,7.5h-14.3c-0.2-0.8-0.6-1.5-1.1-2.2c-0.5-0.7-1.1-1.3-1.8-1.9
	c-0.7-0.5-1.5-1-2.4-1.3c-0.9-0.3-1.9-0.5-3-0.5c-1.8,0-3.3,0.3-4.6,1c-1.3,0.7-2.4,1.7-3.3,2.9c-0.9,1.3-1.6,2.8-2,4.5
	c-0.5,1.7-0.7,3.6-0.7,5.7c0,2.1,0.3,4,0.8,5.7c0.5,1.8,1.2,3.3,2.2,4.6c1,1.3,2.1,2.3,3.5,3c1.4,0.7,3,1.1,4.8,1.1
	c1.3,0,2.5-0.2,3.5-0.5c1-0.3,1.9-0.8,2.6-1.3s1.3-1.1,1.8-1.7c0.5-0.6,0.8-1.2,1-1.8h-9.4v-10.6H-74v27.3h-9.1l-2.6-6.1h-0.1
	c-0.8,1.1-1.7,2.1-2.8,2.9c-1,0.8-2.2,1.5-3.4,2c-1.2,0.5-2.5,0.9-3.9,1.2c-1.4,0.3-2.9,0.4-4.4,0.4c-1.7,0-3.4-0.1-4.9-0.4
	c-1.6-0.3-3-0.7-4.4-1.3c-1.4-0.6-2.7-1.3-3.9-2.1c-1.4-0.9-2.5-1.8-3.5-2.9c-1.2-1.2-2.2-2.6-3-4c-0.9-1.5-1.6-3-2.2-4.6
	c-0.6-1.6-1-3.4-1.3-5.2c-0.4-1.9-0.5-3.8-0.5-5.7C-124,390.5-123.4,387.1-122.3,383.9z M-71.9,369.3h15.2v38h17.4v12.8h-32.6V369.3
	z M-39,383.9c1.2-3.2,2.8-6,5-8.3c2.2-2.4,4.8-4.2,7.9-5.6c3.1-1.3,6.6-2,10.5-2c3.3,0,6.2,0.4,8.8,1.3c2.6,0.9,4.9,2.1,6.9,3.7
	s3.6,3.5,4.8,5.7c1.2,2.2,2.1,4.6,2.5,7.3H-6.9c-0.2-0.7-0.6-1.3-1-2c-0.5-0.7-1.1-1.3-1.8-1.9c-0.7-0.6-1.5-1.1-2.4-1.4
	c-0.9-0.4-1.9-0.6-3-0.6c-1.8,0-3.3,0.3-4.7,1c-1.3,0.7-2.4,1.7-3.3,2.9c-0.9,1.3-1.5,2.8-2,4.5s-0.7,3.6-0.7,5.7
	c0,2.1,0.3,4,0.8,5.7c0.5,1.8,1.2,3.3,2.2,4.6c0.9,1.3,2.1,2.3,3.5,3s3,1.1,4.7,1.1c1.4,0,2.5-0.2,3.5-0.5c1-0.3,1.9-0.8,2.6-1.3
	s1.3-1.1,1.8-1.7s0.8-1.2,1-1.8h-9.4v-10.5H9.1v27.3H0l-2.5-6.1h-0.2c-0.8,1.1-1.7,2.1-2.7,2.9c-1,0.8-2.2,1.5-3.4,2
	c-1.2,0.5-2.5,0.9-3.9,1.2c-1.4,0.3-2.9,0.4-4.4,0.4c-1.7,0-3.3-0.1-4.9-0.4c-1.6-0.3-3.1-0.7-4.5-1.3c-1.4-0.6-2.7-1.3-3.9-2.1
	c-1.2-0.8-2.3-1.8-3.4-2.9c-1.2-1.2-2.2-2.6-3-4c-0.9-1.5-1.6-3-2.2-4.6c-0.6-1.6-1-3.4-1.3-5.2s-0.4-3.7-0.4-5.7
	C-40.7,390.5-40.2,387.1-39,383.9z"/>
<g>
	<path fill="#FFFFFF" d="M37.7,402.1l-6.9,17.7h-1.1l19.1-49.5h1.3l19,49.5H68l-6.9-17.7H37.7z M60.7,401.2l-11.4-29.4L38,401.2
		H60.7z"/>
	<path fill="#FFFFFF" d="M81.4,418.9c-2-1-3.8-2.3-5.2-4c-1.4-1.7-2.5-3.7-3.3-5.9s-1.1-5.3-1.1-9.1c0-3.8,1.5-7.5,4.5-11
		s7-5.3,12-5.3c4.1,0,7.4,1,10.1,3c2.6,2,4.3,4.8,5.1,8.3h-1c-0.7-3.4-2.4-6-5-7.7c-2.6-1.7-5.6-2.6-9.1-2.6c-4.3,0-8,1.5-11,4.6
		c-3,3.1-4.5,7.3-4.5,12.6c0,5.3,1.5,9.6,4.5,12.8c3,3.2,6.6,4.9,10.8,4.9s7.6-1,10-3.1c2.4-2,3.9-4.9,4.4-8.6h1
		c-0.7,5.9-2.9,9.4-6.4,10.7s-6.5,1.9-9,1.9S83.5,419.9,81.4,418.9z"/>
	<path fill="#FFFFFF" d="M118.1,418.9c-2-1-3.8-2.3-5.2-4c-1.4-1.7-2.5-3.7-3.3-5.9s-1.1-5.3-1.1-9.1c0-3.8,1.5-7.5,4.5-11
		s7-5.3,12-5.3c4.1,0,7.4,1,10.1,3c2.6,2,4.3,4.8,5.1,8.3h-1c-0.7-3.4-2.4-6-5-7.7c-2.6-1.7-5.6-2.6-9.1-2.6c-4.3,0-8,1.5-11,4.6
		c-3,3.1-4.5,7.3-4.5,12.6c0,5.3,1.5,9.6,4.5,12.8c3,3.2,6.6,4.9,10.8,4.9s7.6-1,10-3.1c2.4-2,3.9-4.9,4.4-8.6h1
		c-0.7,5.9-2.9,9.4-6.4,10.7s-6.5,1.9-9,1.9S120.1,419.9,118.1,418.9z"/>
	<path fill="#FFFFFF" d="M150.4,414.5c2.7,3.3,6.5,5,11.3,5c3.3,0,6.1-0.8,8.5-2.5s4.1-4.2,5-7.5h1c-0.7,3.1-2.3,5.7-4.8,7.8
		c-2.5,2.1-5.8,3.1-9.7,3.1c-5.1,0-9.2-1.8-12.1-5.3s-4.4-8-4.4-13.3c0-5.4,1.5-9.7,4.4-13.1c2.9-3.4,6.8-5.1,11.7-5.1
		c3.7,0,6.7,1,9.2,3c3.9,3.1,6.1,8,6.4,14.9h-30.5C146.2,406.9,147.6,411.2,150.4,414.5z M146.2,400.5h29.5c-0.4-5.4-2-9.5-4.7-12.1
		s-6-3.9-10-3.9s-7.4,1.4-10.2,4.3C148,391.7,146.4,395.6,146.2,400.5z"/>
	<path fill="#FFFFFF" d="M184.9,384.1v11.1h0.1c1-3.8,2.8-6.7,5.5-8.6c2.7-2,5.7-2.9,9.1-2.9c4.3,0,7.9,1.6,10.8,4.7
		c3,3.2,4.4,7.6,4.4,13.3c0,5.7-1.4,10.3-4.3,13.7s-6.6,5.1-11.1,5.1c-3.6,0-6.7-1-9.3-3.1s-4.3-4.8-5.2-8.2h-0.1v22.2h-1v-47.3
		H184.9z M209.7,388.9c-2.7-2.9-6.2-4.4-10.4-4.4c-4.2,0-7.6,1.6-10.4,4.8c-2.7,3.2-4.1,7.4-4.1,12.7s1.4,9.5,4.1,12.7
		c2.7,3.1,6.2,4.7,10.4,4.7c4.1,0,7.6-1.6,10.4-4.7c2.8-3.1,4.1-7.5,4.1-13.1S212.4,391.9,209.7,388.9z"/>
	<path fill="#FFFFFF" d="M223.2,385h-4.8v-1h4.8v-11.2h1v11.3h8.9v1h-8.9v29.4c0,1.6,0.4,2.8,1.1,3.6c0.7,0.8,2,1.2,3.7,1.2
		s3.1-0.2,4.1-0.5h0.1v1c-1.1,0.3-2.5,0.5-4.3,0.5c-3.8,0-5.6-1.9-5.6-5.7V385H223.2z"/>
</g>
</svg>
